<svg width="355" height="36" viewBox="0 0 355 36" fill="none" xmlns="http://www.w3.org/2000/svg">
<path d="M23.9453 17.0703V31.1328C23.4609 31.6484 22.75 32.25 21.8125 32.9375C20.8906 33.6094 19.6797 34.2031 18.1797 34.7188C16.6953 35.2188 14.8828 35.4688 12.7422 35.4688C10.8516 35.4688 9.13281 35.1719 7.58594 34.5781C6.05469 33.9844 4.73438 33.0859 3.625 31.8828C2.53125 30.6641 1.69531 29.1484 1.11719 27.3359C0.539062 25.5078 0.25 23.3438 0.25 20.8438V15.0312C0.25 12.5625 0.523438 10.4141 1.07031 8.58594C1.63281 6.74219 2.44531 5.21094 3.50781 3.99219C4.57031 2.77344 5.83594 1.86719 7.30469 1.27344C8.78906 0.679688 10.4609 0.382812 12.3203 0.382812C14.8828 0.382812 16.9844 0.8125 18.625 1.67188C20.2812 2.53125 21.5312 3.80469 22.375 5.49219C23.2344 7.17969 23.75 9.25 23.9219 11.7031H17.2891C17.1797 10.2656 16.9375 9.14062 16.5625 8.32812C16.2031 7.51562 15.6953 6.9375 15.0391 6.59375C14.3828 6.23438 13.5312 6.05469 12.4844 6.05469C11.5781 6.05469 10.7891 6.21875 10.1172 6.54688C9.44531 6.85937 8.88281 7.375 8.42969 8.09375C7.97656 8.8125 7.64062 9.73438 7.42188 10.8594C7.20312 11.9844 7.09375 13.3594 7.09375 14.9844V20.8438C7.09375 22.4531 7.21875 23.8281 7.46875 24.9688C7.71875 26.1094 8.08594 27.0391 8.57031 27.7578C9.07031 28.4766 9.69531 29 10.4453 29.3281C11.2109 29.6406 12.1094 29.7969 13.1406 29.7969C13.9688 29.7969 14.6328 29.7109 15.1328 29.5391C15.6328 29.3672 16.0312 29.1875 16.3281 29C16.6406 28.7969 16.8984 28.6406 17.1016 28.5312V22.25H12.2031V17.0703H23.9453ZM28.9141 0.875H39.8594C42.1406 0.875 44.0859 1.26563 45.6953 2.04688C47.3047 2.82812 48.5391 3.98438 49.3984 5.51562C50.2578 7.04687 50.6875 8.9375 50.6875 11.1875C50.6875 13.0312 50.4375 14.6094 49.9375 15.9219C49.4375 17.2188 48.7266 18.3047 47.8047 19.1797C46.8828 20.0391 45.7812 20.7266 44.5 21.2422L42.4141 22.4844H33.5312L33.5078 16.7891H39.6719C40.6094 16.7891 41.3828 16.5859 41.9922 16.1797C42.6172 15.7578 43.0781 15.1719 43.375 14.4219C43.6875 13.6562 43.8438 12.7656 43.8438 11.75C43.8438 10.6719 43.7031 9.75 43.4219 8.98438C43.1562 8.20312 42.7266 7.60937 42.1328 7.20312C41.5547 6.78125 40.7969 6.57031 39.8594 6.57031H35.7812V35H28.9141V0.875ZM44.4062 35L38.1484 19.7891L45.3438 19.7656L51.7422 34.6719V35H44.4062ZM67.8203 6.96875L60.4844 35H53.2422L63.9062 0.875H68.4297L67.8203 6.96875ZM73.6094 35L66.2266 6.96875L65.5469 0.875H70.1406L80.8984 35H73.6094ZM73.8672 22.2734V27.9688H58.4688V22.2734H73.8672ZM95.7812 22.9766H88.7969V17.2812H95.7812C96.75 17.2812 97.5391 17.0625 98.1484 16.625C98.7734 16.1875 99.2266 15.5859 99.5078 14.8203C99.7891 14.0391 99.9297 13.1641 99.9297 12.1953C99.9297 11.2109 99.7812 10.2969 99.4844 9.45312C99.2031 8.59375 98.7578 7.89844 98.1484 7.36719C97.5547 6.83594 96.7656 6.57031 95.7812 6.57031H91V35H84.1562V0.875H95.7812C98.0781 0.875 100.055 1.35938 101.711 2.32812C103.367 3.29687 104.633 4.63281 105.508 6.33594C106.398 8.02344 106.844 9.96094 106.844 12.1484C106.844 14.3516 106.398 16.2656 105.508 17.8906C104.633 19.5 103.367 20.75 101.711 21.6406C100.055 22.5312 98.0781 22.9766 95.7812 22.9766ZM123.062 22.9766H116.078V17.2812H123.062C124.031 17.2812 124.82 17.0625 125.43 16.625C126.055 16.1875 126.508 15.5859 126.789 14.8203C127.07 14.0391 127.211 13.1641 127.211 12.1953C127.211 11.2109 127.062 10.2969 126.766 9.45312C126.484 8.59375 126.039 7.89844 125.43 7.36719C124.836 6.83594 124.047 6.57031 123.062 6.57031H118.281V35H111.438V0.875H123.062C125.359 0.875 127.336 1.35938 128.992 2.32812C130.648 3.29687 131.914 4.63281 132.789 6.33594C133.68 8.02344 134.125 9.96094 134.125 12.1484C134.125 14.3516 133.68 16.2656 132.789 17.8906C131.914 19.5 130.648 20.75 128.992 21.6406C127.336 22.5312 125.359 22.9766 123.062 22.9766ZM157.656 29.3281V35H143.477V29.3281H157.656ZM145.586 0.875V35H138.719V0.875H145.586ZM181.258 29.3281V35H166.422V29.3281H181.258ZM168.555 0.875V35H161.688V0.875H168.555ZM179.266 14.7031V20.2109H166.422V14.7031H179.266ZM181.211 0.875V6.57031H166.422V0.875H181.211ZM201.531 23.6328H208.352C208.258 26.1953 207.742 28.3594 206.805 30.125C205.867 31.875 204.531 33.2031 202.797 34.1094C201.078 35.0156 199 35.4688 196.562 35.4688C194.672 35.4688 192.992 35.1562 191.523 34.5312C190.055 33.8906 188.805 32.9531 187.773 31.7188C186.742 30.4844 185.961 28.9609 185.43 27.1484C184.914 25.3203 184.656 23.2188 184.656 20.8438V15.0547C184.656 12.6797 184.93 10.5781 185.477 8.75C186.039 6.92188 186.836 5.39063 187.867 4.15625C188.914 2.90625 190.172 1.96875 191.641 1.34375C193.125 0.703125 194.797 0.382812 196.656 0.382812C199.141 0.382812 201.219 0.851562 202.891 1.78906C204.562 2.72656 205.852 4.09375 206.758 5.89062C207.68 7.67188 208.234 9.85156 208.422 12.4297H201.578C201.531 10.8047 201.344 9.53125 201.016 8.60938C200.703 7.67188 200.203 7.01562 199.516 6.64062C198.828 6.25 197.875 6.05469 196.656 6.05469C195.75 6.05469 194.969 6.21875 194.312 6.54688C193.656 6.85937 193.117 7.36719 192.695 8.07031C192.273 8.77344 191.961 9.69531 191.758 10.8359C191.57 11.9766 191.477 13.3672 191.477 15.0078V20.8438C191.477 22.4531 191.562 23.8281 191.734 24.9688C191.906 26.0938 192.18 27.0156 192.555 27.7344C192.93 28.4531 193.438 28.9766 194.078 29.3047C194.734 29.6328 195.562 29.7969 196.562 29.7969C197.719 29.7969 198.648 29.625 199.352 29.2812C200.07 28.9375 200.602 28.3203 200.945 27.4297C201.289 26.5391 201.484 25.2734 201.531 23.6328ZM236.617 15.2891V20.9844C236.617 23.3906 236.32 25.5 235.727 27.3125C235.148 29.1094 234.32 30.6172 233.242 31.8359C232.18 33.0391 230.891 33.9453 229.375 34.5547C227.875 35.1641 226.211 35.4688 224.383 35.4688C222.555 35.4688 220.883 35.1641 219.367 34.5547C217.867 33.9453 216.57 33.0391 215.477 31.8359C214.398 30.6172 213.562 29.1094 212.969 27.3125C212.375 25.5 212.078 23.3906 212.078 20.9844V15.2891C212.078 12.8203 212.367 10.6641 212.945 8.82031C213.523 6.96094 214.359 5.41406 215.453 4.17969C216.547 2.92969 217.844 1.99219 219.344 1.36719C220.844 0.726563 222.508 0.40625 224.336 0.40625C226.164 0.40625 227.828 0.726563 229.328 1.36719C230.828 1.99219 232.125 2.92969 233.219 4.17969C234.312 5.41406 235.148 6.96094 235.727 8.82031C236.32 10.6641 236.617 12.8203 236.617 15.2891ZM229.797 20.9844V15.2422C229.797 13.6172 229.68 12.2344 229.445 11.0938C229.211 9.9375 228.859 8.99219 228.391 8.25781C227.922 7.52344 227.352 6.98438 226.68 6.64062C226.008 6.29687 225.227 6.125 224.336 6.125C223.445 6.125 222.656 6.29687 221.969 6.64062C221.297 6.98438 220.727 7.52344 220.258 8.25781C219.805 8.99219 219.461 9.9375 219.227 11.0938C219.008 12.2344 218.898 13.6172 218.898 15.2422V20.9844C218.898 22.5469 219.016 23.8828 219.25 24.9922C219.484 26.1016 219.836 27.0078 220.305 27.7109C220.773 28.4141 221.344 28.9375 222.016 29.2812C222.703 29.6094 223.492 29.7734 224.383 29.7734C225.258 29.7734 226.031 29.6094 226.703 29.2812C227.391 28.9375 227.961 28.4141 228.414 27.7109C228.867 27.0078 229.211 26.1016 229.445 24.9922C229.68 23.8828 229.797 22.5469 229.797 20.9844ZM256.047 26.0234C256.047 25.4141 255.992 24.8594 255.883 24.3594C255.773 23.8594 255.539 23.3984 255.18 22.9766C254.836 22.5547 254.328 22.1328 253.656 21.7109C253 21.2891 252.141 20.8516 251.078 20.3984C249.812 19.8672 248.586 19.3047 247.398 18.7109C246.211 18.1016 245.141 17.3984 244.188 16.6016C243.234 15.8047 242.477 14.8672 241.914 13.7891C241.367 12.6953 241.094 11.4141 241.094 9.94531C241.094 8.50781 241.352 7.20312 241.867 6.03125C242.398 4.85938 243.148 3.85937 244.117 3.03125C245.086 2.1875 246.219 1.53906 247.516 1.08594C248.828 0.632813 250.289 0.40625 251.898 0.40625C254.086 0.40625 255.977 0.859375 257.57 1.76562C259.18 2.67188 260.422 3.91406 261.297 5.49219C262.188 7.07031 262.633 8.88281 262.633 10.9297H255.789C255.789 9.96094 255.648 9.10938 255.367 8.375C255.102 7.625 254.672 7.03906 254.078 6.61719C253.484 6.19531 252.719 5.98438 251.781 5.98438C250.906 5.98438 250.18 6.16406 249.602 6.52344C249.039 6.86719 248.617 7.34375 248.336 7.95312C248.07 8.54688 247.938 9.21875 247.938 9.96875C247.938 10.5312 248.07 11.0391 248.336 11.4922C248.617 11.9297 249 12.3281 249.484 12.6875C249.969 13.0312 250.539 13.3672 251.195 13.6953C251.867 14.0234 252.602 14.3438 253.398 14.6562C254.945 15.2656 256.312 15.9375 257.5 16.6719C258.688 17.3906 259.68 18.2031 260.477 19.1094C261.273 20 261.875 21.0078 262.281 22.1328C262.688 23.2578 262.891 24.5391 262.891 25.9766C262.891 27.3984 262.641 28.6953 262.141 29.8672C261.656 31.0234 260.945 32.0234 260.008 32.8672C259.07 33.6953 257.938 34.3359 256.609 34.7891C255.297 35.2422 253.828 35.4688 252.203 35.4688C250.625 35.4688 249.133 35.25 247.727 34.8125C246.32 34.3594 245.078 33.6797 244 32.7734C242.938 31.8516 242.102 30.6875 241.492 29.2812C240.883 27.8594 240.578 26.1797 240.578 24.2422H247.445C247.445 25.2734 247.547 26.1562 247.75 26.8906C247.953 27.6094 248.266 28.1875 248.688 28.625C249.109 29.0469 249.625 29.3672 250.234 29.5859C250.859 29.7891 251.57 29.8906 252.367 29.8906C253.273 29.8906 253.992 29.7188 254.523 29.375C255.07 29.0312 255.461 28.5703 255.695 27.9922C255.93 27.4141 256.047 26.7578 256.047 26.0234ZM269.969 0.875H275.992L282.953 24.2188L289.891 0.875H295.211L285.508 35H280.375L269.969 0.875ZM267.531 0.875H273.273L274.164 23.375V35H267.531V0.875ZM292.586 0.875H298.352V35H291.742V23.375L292.586 0.875ZM327.93 15.2891V20.9844C327.93 23.3906 327.633 25.5 327.039 27.3125C326.461 29.1094 325.633 30.6172 324.555 31.8359C323.492 33.0391 322.203 33.9453 320.688 34.5547C319.188 35.1641 317.523 35.4688 315.695 35.4688C313.867 35.4688 312.195 35.1641 310.68 34.5547C309.18 33.9453 307.883 33.0391 306.789 31.8359C305.711 30.6172 304.875 29.1094 304.281 27.3125C303.688 25.5 303.391 23.3906 303.391 20.9844V15.2891C303.391 12.8203 303.68 10.6641 304.258 8.82031C304.836 6.96094 305.672 5.41406 306.766 4.17969C307.859 2.92969 309.156 1.99219 310.656 1.36719C312.156 0.726563 313.82 0.40625 315.648 0.40625C317.477 0.40625 319.141 0.726563 320.641 1.36719C322.141 1.99219 323.438 2.92969 324.531 4.17969C325.625 5.41406 326.461 6.96094 327.039 8.82031C327.633 10.6641 327.93 12.8203 327.93 15.2891ZM321.109 20.9844V15.2422C321.109 13.6172 320.992 12.2344 320.758 11.0938C320.523 9.9375 320.172 8.99219 319.703 8.25781C319.234 7.52344 318.664 6.98438 317.992 6.64062C317.32 6.29687 316.539 6.125 315.648 6.125C314.758 6.125 313.969 6.29687 313.281 6.64062C312.609 6.98438 312.039 7.52344 311.57 8.25781C311.117 8.99219 310.773 9.9375 310.539 11.0938C310.32 12.2344 310.211 13.6172 310.211 15.2422V20.9844C310.211 22.5469 310.328 23.8828 310.562 24.9922C310.797 26.1016 311.148 27.0078 311.617 27.7109C312.086 28.4141 312.656 28.9375 313.328 29.2812C314.016 29.6094 314.805 29.7734 315.695 29.7734C316.57 29.7734 317.344 29.6094 318.016 29.2812C318.703 28.9375 319.273 28.4141 319.727 27.7109C320.18 27.0078 320.523 26.1016 320.758 24.9922C320.992 23.8828 321.109 22.5469 321.109 20.9844ZM347.359 26.0234C347.359 25.4141 347.305 24.8594 347.195 24.3594C347.086 23.8594 346.852 23.3984 346.492 22.9766C346.148 22.5547 345.641 22.1328 344.969 21.7109C344.312 21.2891 343.453 20.8516 342.391 20.3984C341.125 19.8672 339.898 19.3047 338.711 18.7109C337.523 18.1016 336.453 17.3984 335.5 16.6016C334.547 15.8047 333.789 14.8672 333.227 13.7891C332.68 12.6953 332.406 11.4141 332.406 9.94531C332.406 8.50781 332.664 7.20312 333.18 6.03125C333.711 4.85938 334.461 3.85937 335.43 3.03125C336.398 2.1875 337.531 1.53906 338.828 1.08594C340.141 0.632813 341.602 0.40625 343.211 0.40625C345.398 0.40625 347.289 0.859375 348.883 1.76562C350.492 2.67188 351.734 3.91406 352.609 5.49219C353.5 7.07031 353.945 8.88281 353.945 10.9297H347.102C347.102 9.96094 346.961 9.10938 346.68 8.375C346.414 7.625 345.984 7.03906 345.391 6.61719C344.797 6.19531 344.031 5.98438 343.094 5.98438C342.219 5.98438 341.492 6.16406 340.914 6.52344C340.352 6.86719 339.93 7.34375 339.648 7.95312C339.383 8.54688 339.25 9.21875 339.25 9.96875C339.25 10.5312 339.383 11.0391 339.648 11.4922C339.93 11.9297 340.312 12.3281 340.797 12.6875C341.281 13.0312 341.852 13.3672 342.508 13.6953C343.18 14.0234 343.914 14.3438 344.711 14.6562C346.258 15.2656 347.625 15.9375 348.812 16.6719C350 17.3906 350.992 18.2031 351.789 19.1094C352.586 20 353.188 21.0078 353.594 22.1328C354 23.2578 354.203 24.5391 354.203 25.9766C354.203 27.3984 353.953 28.6953 353.453 29.8672C352.969 31.0234 352.258 32.0234 351.32 32.8672C350.383 33.6953 349.25 34.3359 347.922 34.7891C346.609 35.2422 345.141 35.4688 343.516 35.4688C341.938 35.4688 340.445 35.25 339.039 34.8125C337.633 34.3594 336.391 33.6797 335.312 32.7734C334.25 31.8516 333.414 30.6875 332.805 29.2812C332.195 27.8594 331.891 26.1797 331.891 24.2422H338.758C338.758 25.2734 338.859 26.1562 339.062 26.8906C339.266 27.6094 339.578 28.1875 340 28.625C340.422 29.0469 340.938 29.3672 341.547 29.5859C342.172 29.7891 342.883 29.8906 343.68 29.8906C344.586 29.8906 345.305 29.7188 345.836 29.375C346.383 29.0312 346.773 28.5703 347.008 27.9922C347.242 27.4141 347.359 26.7578 347.359 26.0234Z" fill="url(#paint0_linear_103_77)"/>
<defs>
<linearGradient id="paint0_linear_103_77" x1="-2" y1="18.5" x2="418" y2="18.5" gradientUnits="userSpaceOnUse">
<stop stop-color="#8BDEDA"/>
<stop offset="0.25" stop-color="#43ADD0"/>
<stop offset="0.5" stop-color="#998EE0"/>
<stop offset="0.75" stop-color="#E17DC2"/>
<stop offset="1" stop-color="#EF9393"/>
</linearGradient>
</defs>
</svg>
