<svg width="1857" height="1451" viewBox="0 0 1857 1451" fill="none" xmlns="http://www.w3.org/2000/svg">
<rect width="1857" height="1451" fill="white"/>
<path d="M506 151C436.962 151 381 206.965 381 276C381 330.426 415.783 376.728 464.333 393.887V401C464.333 493.046 538.954 567.667 631 567.667H881C927.024 567.667 964.333 604.975 964.333 651V658.113C915.784 675.271 881 721.575 881 776C881 845.038 936.965 901 1006 901C1075.04 901 1131 845.038 1131 776C1131 721.575 1096.22 675.271 1047.67 658.113V393.887C1096.22 376.728 1131 330.426 1131 276C1131 206.965 1075.04 151 1006 151C936.965 151 881 206.965 881 276C881 330.426 915.784 376.728 964.333 393.887V506.629C939.819 492.45 911.357 484.333 881 484.333H631C584.975 484.333 547.667 447.025 547.667 401V393.887C596.217 376.728 631 330.426 631 276C631 206.965 575.038 151 506 151ZM1006 734.333C1029.01 734.333 1047.67 752.988 1047.67 776C1047.67 799.012 1029.01 817.667 1006 817.667C982.988 817.667 964.333 799.012 964.333 776C964.333 752.988 982.988 734.333 1006 734.333ZM1006 234.333C1029.01 234.333 1047.67 252.988 1047.67 276C1047.67 299.012 1029.01 317.667 1006 317.667C982.988 317.667 964.333 299.012 964.333 276C964.333 252.988 982.988 234.333 1006 234.333ZM506 234.333C529.012 234.333 547.667 252.988 547.667 276C547.667 299.012 529.012 317.667 506 317.667C482.988 317.667 464.333 299.012 464.333 276C464.333 252.988 482.988 234.333 506 234.333Z" fill="black" fill-opacity="0.16"/>
<path d="M1506 651C1575.04 651 1631 706.965 1631 776C1631 830.426 1596.22 876.728 1547.67 893.887V901C1547.67 993.046 1473.05 1067.67 1381 1067.67H1131C1084.98 1067.67 1047.67 1104.98 1047.67 1151V1158.11C1096.22 1175.27 1131 1221.57 1131 1276C1131 1345.04 1075.04 1401 1006 1401C936.965 1401 881 1345.04 881 1276C881 1221.57 915.784 1175.27 964.333 1158.11V893.887C915.784 876.728 881 830.426 881 776C881 706.965 936.965 651 1006 651C1075.04 651 1131 706.965 1131 776C1131 830.426 1096.22 876.728 1047.67 893.887V1006.63C1072.18 992.45 1100.64 984.333 1131 984.333H1381C1427.02 984.333 1464.33 947.025 1464.33 901V893.887C1415.78 876.728 1381 830.426 1381 776C1381 706.965 1436.96 651 1506 651ZM1006 1234.33C982.988 1234.33 964.333 1252.99 964.333 1276C964.333 1299.01 982.988 1317.67 1006 1317.67C1029.01 1317.67 1047.67 1299.01 1047.67 1276C1047.67 1252.99 1029.01 1234.33 1006 1234.33ZM1006 734.333C982.988 734.333 964.333 752.988 964.333 776C964.333 799.012 982.988 817.667 1006 817.667C1029.01 817.667 1047.67 799.012 1047.67 776C1047.67 752.988 1029.01 734.333 1006 734.333ZM1506 734.333C1482.99 734.333 1464.33 752.988 1464.33 776C1464.33 799.012 1482.99 817.667 1506 817.667C1529.01 817.667 1547.67 799.012 1547.67 776C1547.67 752.988 1529.01 734.333 1506 734.333Z" fill="black" fill-opacity="0.16"/>
<circle cx="1506.5" cy="776.5" r="42.5" fill="#1F3B9F"/>
<circle cx="1506.5" cy="776.5" r="42.5" fill="#1F3B9F"/>
<circle cx="505.5" cy="275.5" r="42.5" fill="#7A4D24"/>
<circle cx="1006.5" cy="275.5" r="42.5" fill="#921AA6"/>
<circle cx="1006.5" cy="776.5" r="42.5" fill="black"/>
</svg>
