<svg width="1250" height="1250" viewBox="0 0 1250 1250" fill="none" xmlns="http://www.w3.org/2000/svg">
<path d="M125 0C55.9625 0 0 55.9646 0 125C0 179.426 34.7833 225.728 83.3333 242.887V250C83.3333 342.046 157.954 416.667 250 416.667H500C546.024 416.667 583.333 453.975 583.333 500V507.113C534.784 524.271 500 570.575 500 625C500 694.038 555.965 750 625 750C694.035 750 750 694.038 750 625C750 570.575 715.216 524.271 666.667 507.113V242.887C715.216 225.728 750 179.426 750 125C750 55.9646 694.035 0 625 0C555.965 0 500 55.9646 500 125C500 179.426 534.784 225.728 583.333 242.887V355.629C558.819 341.45 530.357 333.333 500 333.333H250C203.975 333.333 166.667 296.025 166.667 250V242.887C215.217 225.728 250 179.426 250 125C250 55.9646 194.038 0 125 0ZM625 583.333C648.012 583.333 666.667 601.988 666.667 625C666.667 648.012 648.012 666.667 625 666.667C601.988 666.667 583.333 648.012 583.333 625C583.333 601.988 601.988 583.333 625 583.333ZM625 83.3333C648.012 83.3333 666.667 101.988 666.667 125C666.667 148.012 648.012 166.667 625 166.667C601.988 166.667 583.333 148.012 583.333 125C583.333 101.988 601.988 83.3333 625 83.3333ZM125 83.3333C148.012 83.3333 166.667 101.988 166.667 125C166.667 148.012 148.012 166.667 125 166.667C101.988 166.667 83.3333 148.012 83.3333 125C83.3333 101.988 101.988 83.3333 125 83.3333Z" fill="black" fill-opacity="0.16"/>
<path d="M1125 500C1194.04 500 1250 555.965 1250 625C1250 679.426 1215.22 725.728 1166.67 742.887V750C1166.67 842.046 1092.05 916.667 1000 916.667H750C703.976 916.667 666.667 953.975 666.667 1000V1007.11C715.216 1024.27 750 1070.57 750 1125C750 1194.04 694.035 1250 625 1250C555.965 1250 500 1194.04 500 1125C500 1070.57 534.784 1024.27 583.333 1007.11V742.887C534.784 725.728 500 679.426 500 625C500 555.965 555.965 500 625 500C694.035 500 750 555.965 750 625C750 679.426 715.216 725.728 666.667 742.887V855.629C691.181 841.45 719.643 833.333 750 833.333H1000C1046.02 833.333 1083.33 796.025 1083.33 750V742.887C1034.78 725.728 1000 679.426 1000 625C1000 555.965 1055.96 500 1125 500ZM625 1083.33C601.988 1083.33 583.333 1101.99 583.333 1125C583.333 1148.01 601.988 1166.67 625 1166.67C648.012 1166.67 666.667 1148.01 666.667 1125C666.667 1101.99 648.012 1083.33 625 1083.33ZM625 583.333C601.988 583.333 583.333 601.988 583.333 625C583.333 648.012 601.988 666.667 625 666.667C648.012 666.667 666.667 648.012 666.667 625C666.667 601.988 648.012 583.333 625 583.333ZM1125 583.333C1101.99 583.333 1083.33 601.988 1083.33 625C1083.33 648.012 1101.99 666.667 1125 666.667C1148.01 666.667 1166.67 648.012 1166.67 625C1166.67 601.988 1148.01 583.333 1125 583.333Z" fill="black" fill-opacity="0.16"/>
<circle cx="1125.5" cy="625.5" r="42.5" fill="#1F3B9F"/>
<circle cx="1125.5" cy="625.5" r="42.5" fill="#1F3B9F"/>
<circle cx="124.5" cy="124.5" r="42.5" fill="#7A4D24"/>
<circle cx="625.5" cy="124.5" r="42.5" fill="#921AA6"/>
<circle cx="625.5" cy="625.5" r="42.5" fill="black"/>
</svg>
