<svg width="100" height="100" viewBox="0 0 100 100" fill="none" xmlns="http://www.w3.org/2000/svg">
<path d="M10 0C4.477 0 1.3411e-06 4.47717 1.3411e-06 10C1.3411e-06 14.3541 2.78267 18.0582 6.66667 19.431V20C6.66667 27.3637 12.6363 33.3333 20 33.3333H40C43.6819 33.3333 46.6667 36.318 46.6667 40V40.569C42.7827 41.9417 40 45.646 40 50C40 55.523 44.4772 60 50 60C55.5228 60 60 55.523 60 50C60 45.646 57.2173 41.9417 53.3333 40.569V19.431C57.2173 18.0582 60 14.3541 60 10C60 4.47717 55.5228 0 50 0C44.4772 0 40 4.47717 40 10C40 14.3541 42.7827 18.0582 46.6667 19.431V28.4503C44.7055 27.316 42.4286 26.6667 40 26.6667H20C16.318 26.6667 13.3333 23.682 13.3333 20V19.431C17.2173 18.0582 20 14.3541 20 10C20 4.47717 15.523 0 10 0ZM50 46.6667C51.8409 46.6667 53.3333 48.159 53.3333 50C53.3333 51.841 51.8409 53.3333 50 53.3333C48.1591 53.3333 46.6667 51.841 46.6667 50C46.6667 48.159 48.1591 46.6667 50 46.6667ZM50 6.66667C51.8409 6.66667 53.3333 8.15907 53.3333 10C53.3333 11.8409 51.8409 13.3333 50 13.3333C48.1591 13.3333 46.6667 11.8409 46.6667 10C46.6667 8.15907 48.1591 6.66667 50 6.66667ZM10 6.66667C11.841 6.66667 13.3333 8.15907 13.3333 10C13.3333 11.8409 11.841 13.3333 10 13.3333C8.159 13.3333 6.66667 11.8409 6.66667 10C6.66667 8.15907 8.159 6.66667 10 6.66667Z" fill="black" fill-opacity="0.16"/>
<path d="M90 40C95.523 40 100 44.4772 100 50C100 54.3541 97.2173 58.0582 93.3333 59.431V60C93.3333 67.3637 87.3637 73.3333 80 73.3333H60C56.3181 73.3333 53.3333 76.318 53.3333 80V80.569C57.2173 81.9417 60 85.646 60 90C60 95.523 55.5228 100 50 100C44.4772 100 40 95.523 40 90C40 85.646 42.7827 81.9417 46.6667 80.569V59.431C42.7827 58.0582 40 54.3541 40 50C40 44.4772 44.4772 40 50 40C55.5228 40 60 44.4772 60 50C60 54.3541 57.2173 58.0582 53.3333 59.431V68.4503C55.2945 67.316 57.5714 66.6667 60 66.6667H80C83.682 66.6667 86.6667 63.682 86.6667 60V59.431C82.7827 58.0582 80 54.3541 80 50C80 44.4772 84.477 40 90 40ZM50 86.6667C48.1591 86.6667 46.6667 88.159 46.6667 90C46.6667 91.841 48.1591 93.3333 50 93.3333C51.8409 93.3333 53.3333 91.841 53.3333 90C53.3333 88.159 51.8409 86.6667 50 86.6667ZM50 46.6667C48.1591 46.6667 46.6667 48.1591 46.6667 50C46.6667 51.8409 48.1591 53.3333 50 53.3333C51.8409 53.3333 53.3333 51.8409 53.3333 50C53.3333 48.1591 51.8409 46.6667 50 46.6667ZM90 46.6667C88.159 46.6667 86.6667 48.1591 86.6667 50C86.6667 51.8409 88.159 53.3333 90 53.3333C91.841 53.3333 93.3333 51.8409 93.3333 50C93.3333 48.1591 91.841 46.6667 90 46.6667Z" fill="black" fill-opacity="0.16"/>
<circle cx="90.0401" cy="50.0399" r="3.4" fill="#1F3B9F"/>
<circle cx="90.0401" cy="50.0399" r="3.4" fill="#1F3B9F"/>
<circle cx="9.96006" cy="9.96006" r="3.4" fill="#7A4D24"/>
<circle cx="50.0401" cy="9.96006" r="3.4" fill="#921AA6"/>
<circle cx="50.0401" cy="50.0399" r="3.4" fill="black"/>
</svg>
