<svg width="24" height="24" viewBox="0 0 24 24" fill="none" xmlns="http://www.w3.org/2000/svg">
<g opacity="0.81446">
<path d="M11.495 8.21399C13.6084 8.21399 15.3244 9.92997 15.3244 12.0434C15.3244 14.1569 13.6084 15.8729 11.495 15.8729C9.3815 15.8729 7.66553 14.1569 7.66553 12.0434C7.66553 9.92997 9.3815 8.21399 11.495 8.21399Z" fill="#1ED761"/>
<path d="M11.495 8.21399C13.6084 8.21399 15.3244 9.92997 15.3244 12.0434C15.3244 14.1569 13.6084 15.8729 11.495 15.8729C9.3815 15.8729 7.66553 14.1569 7.66553 12.0434C7.66553 9.92997 9.3815 8.21399 11.495 8.21399Z" stroke="#1ED761" stroke-width="0.0461417"/>
</g>
<g opacity="0.56446">
<path d="M11.4987 6.65637C14.4726 6.65637 16.8871 9.07091 16.8871 12.0448C16.8871 15.0186 14.4726 17.4331 11.4987 17.4331C8.52489 17.4331 6.11035 15.0186 6.11035 12.0448C6.11035 9.07091 8.52489 6.65637 11.4987 6.65637Z" fill="#1ED761"/>
<path d="M11.4987 6.65637C14.4726 6.65637 16.8871 9.07091 16.8871 12.0448C16.8871 15.0186 14.4726 17.4331 11.4987 17.4331C8.52489 17.4331 6.11035 15.0186 6.11035 12.0448C6.11035 9.07091 8.52489 6.65637 11.4987 6.65637Z" stroke="#1ED761" stroke-width="0.0649256"/>
</g>
<g opacity="0.31446">
<path d="M11.5025 5.09888C15.3367 5.09888 18.4498 8.21197 18.4498 12.0462C18.4498 15.8804 15.3367 18.9935 11.5025 18.9935C7.66827 18.9935 4.55518 15.8804 4.55518 12.0462C4.55518 8.21197 7.66827 5.09888 11.5025 5.09888Z" fill="#1ED761"/>
<path d="M11.5025 5.09888C15.3367 5.09888 18.4498 8.21197 18.4498 12.0462C18.4498 15.8804 15.3367 18.9935 11.5025 18.9935C7.66827 18.9935 4.55518 15.8804 4.55518 12.0462C4.55518 8.21197 7.66827 5.09888 11.5025 5.09888Z" stroke="#1ED761" stroke-width="0.0837095"/>
</g>
<g opacity="0.06446">
<path d="M11.5063 3.54126C16.2009 3.54126 20.0125 7.35292 20.0125 12.0475C20.0125 16.7421 16.2009 20.5538 11.5063 20.5538C6.81166 20.5538 3 16.7421 3 12.0475C3 7.35292 6.81166 3.54126 11.5063 3.54126Z" fill="#1ED761"/>
<path d="M11.5063 3.54126C16.2009 3.54126 20.0125 7.35292 20.0125 12.0475C20.0125 16.7421 16.2009 20.5538 11.5063 20.5538C6.81166 20.5538 3 16.7421 3 12.0475C3 7.35292 6.81166 3.54126 11.5063 3.54126Z" stroke="#1ED761" stroke-width="0.102493"/>
</g>
<path d="M8.13197 22.9364L16.9498 14.1186C17.465 13.6034 17.38 12.7457 16.7738 12.3415L13.4384 10.1179C13.0269 9.84361 12.8359 9.33767 12.9633 8.85982L15.0592 1L6.24144 9.8178C5.72626 10.333 5.81119 11.1907 6.4174 11.5948L9.75279 13.8184C10.1643 14.0927 10.3553 14.5987 10.2279 15.0765L8.13197 22.9364Z" fill="#1ED761"/>
</svg>