<svg width="10" height="10" viewBox="0 0 10 10" fill="none" xmlns="http://www.w3.org/2000/svg">
<g clip-path="url(#clip0_679_157)">
<path d="M0.807862 0C1.01442 0 1.22151 0.0757013 1.37939 0.227622L5.76771 4.45013C5.91948 4.596 6.00444 4.79355 6.00444 5.00009C6.00444 5.20662 5.91912 5.40417 5.76771 5.55004L1.37939 9.77238C1.06399 10.076 0.552093 10.0762 0.236512 9.77238C-0.0792488 9.46854 -0.0792488 8.9763 0.236512 8.67246L4.05294 5.00009L0.236332 1.32788C-0.0794284 1.02421 -0.0794284 0.531983 0.236332 0.227968C0.394033 0.0758741 0.601127 0 0.807862 0Z" fill="#1ED761"/>
</g>
<g clip-path="url(#clip1_679_157)">
<path d="M5.84224 1C6.00748 1 6.17316 1.06056 6.29946 1.1821L9.81011 4.5601C9.93153 4.6768 9.9995 4.83484 9.9995 5.00007C9.9995 5.1653 9.93125 5.32334 9.81011 5.44003L6.29946 8.8179C6.04714 9.06084 5.63762 9.06098 5.38516 8.8179C5.13255 8.57483 5.13255 8.18104 5.38516 7.93797L8.4383 5.00007L5.38501 2.06231C5.1324 1.81937 5.1324 1.42559 5.38501 1.18237C5.51117 1.0607 5.67685 1 5.84224 1Z" fill="#1ED761"/>
</g>
<defs>
<clipPath id="clip0_679_157">
<rect width="6.00484" height="10" fill="white"/>
</clipPath>
<clipPath id="clip1_679_157">
<rect width="4.80387" height="8" fill="white" transform="translate(5.19604 1)"/>
</clipPath>
</defs>
</svg>
